<?xml version="1.0" standalone="no"?>
<!DOCTYPE svg PUBLIC "-//W3C//DTD SVG 20010904//EN"
 "http://www.w3.org/TR/2001/REC-SVG-20010904/DTD/svg10.dtd">
<svg version="1.0" xmlns="http://www.w3.org/2000/svg"
 width="1600.000000pt" height="1600.000000pt" viewBox="0 0 1600.000000 1600.000000"
 preserveAspectRatio="xMidYMid meet">
<metadata>
Created by potrace 1.16, written by Peter Selinger 2001-2019
</metadata>
<g transform="translate(0.000000,1600.000000) scale(0.100000,-0.100000)"
fill="#000000" stroke="none">
<path d="M7680 15360 c-1224 -73 -2301 -525 -3300 -1384 -143 -123 -446 -422
-594 -586 -737 -815 -1335 -1846 -1682 -2895 -158 -481 -224 -856 -209 -1200
15 -376 56 -664 135 -961 33 -124 103 -329 131 -385 l18 -35 -37 -13 c-120
-42 -296 -188 -390 -324 -192 -279 -292 -665 -292 -1128 0 -369 55 -691 181
-1055 112 -325 245 -590 443 -884 361 -536 720 -801 1124 -829 l94 -6 37 -110
c173 -506 461 -915 878 -1248 263 -209 593 -397 1085 -617 255 -115 387 -184
658 -345 422 -250 632 -353 896 -438 642 -207 1476 -211 2134 -10 243 74 497
197 900 435 315 186 412 237 650 343 675 301 1028 522 1350 845 303 303 513
643 649 1051 l32 96 102 6 c124 7 246 41 372 102 345 167 717 598 996 1155
188 376 304 753 355 1155 20 157 22 504 5 655 -63 545 -280 950 -598 1113 -46
23 -83 46 -83 51 0 4 22 72 49 150 113 327 175 663 202 1091 25 402 -8 724
-117 1123 -335 1231 -1191 2626 -2167 3532 -986 914 -2058 1420 -3248 1534
-198 19 -572 27 -759 16z m740 -655 c894 -96 1700 -435 2453 -1033 555 -439
1082 -1036 1501 -1699 445 -704 786 -1492 915 -2114 47 -229 55 -319 48 -549
-15 -475 -94 -866 -249 -1230 -72 -167 -76 -173 -145 -188 -90 -21 -248 -75
-359 -124 l-101 -45 34 111 c73 234 124 360 177 441 183 277 286 573 316 910
21 228 1 324 -116 560 -193 391 -515 796 -904 1138 -726 638 -1708 1058 -2864
1227 -660 96 -1510 106 -2186 25 -1201 -144 -2213 -547 -2985 -1189 -298 -249
-567 -545 -772 -851 -135 -202 -246 -416 -299 -571 -25 -77 -26 -84 -21 -259
3 -130 11 -211 27 -290 46 -229 154 -503 268 -677 28 -42 67 -121 88 -175 30
-81 134 -382 134 -389 0 -2 -39 15 -88 36 -97 42 -246 91 -335 111 l-59 13
-38 75 c-185 370 -288 765 -321 1228 -18 270 1 457 81 783 176 713 592 1593
1088 2300 757 1080 1715 1845 2757 2200 416 141 751 205 1280 244 106 8 537
-4 675 -19z m0 -3165 c1091 -67 1983 -332 2713 -807 574 -373 1036 -892 1227
-1377 23 -58 23 -59 7 -170 -13 -98 -62 -279 -88 -328 -8 -16 -21 -9 -102 55
-817 645 -1912 1105 -3047 1282 -409 64 -739 88 -1185 89 -366 0 -547 -9 -870
-45 -1269 -139 -2478 -616 -3402 -1342 -61 -48 -72 -54 -78 -39 -54 131 -93
299 -96 407 -2 52 4 75 46 169 171 385 532 812 960 1136 650 491 1475 802
2450 924 110 14 272 30 360 36 88 6 180 12 205 13 116 8 753 6 900 -3z m-150
-1900 c208 -12 423 -33 615 -61 154 -22 529 -96 669 -132 l90 -23 -65 -23
c-344 -124 -665 -388 -894 -736 -88 -134 -108 -181 -113 -265 -5 -99 22 -175
87 -240 72 -72 129 -95 231 -95 73 0 92 4 137 28 71 37 111 79 166 175 87 151
244 322 376 411 282 191 587 214 931 70 117 -49 261 -130 366 -205 98 -71 151
-95 224 -101 135 -13 237 50 325 202 10 16 21 11 120 -50 265 -164 458 -302
451 -325 -3 -8 -30 -89 -61 -180 -138 -404 -198 -774 -174 -1085 14 -189 31
-310 124 -865 160 -959 189 -1194 190 -1535 0 -268 -10 -379 -52 -585 -68
-337 -222 -658 -427 -892 -294 -335 -582 -526 -1276 -843 -303 -139 -428 -206
-780 -417 -408 -246 -621 -342 -892 -402 -347 -76 -888 -88 -1265 -26 -346 57
-553 142 -1018 421 -367 219 -491 286 -835 444 -605 279 -846 430 -1115 700
-302 301 -463 605 -550 1040 -38 187 -49 322 -49 560 0 315 41 634 198 1577
108 644 120 739 120 963 0 239 -31 453 -104 715 -26 94 -100 320 -129 393 -10
26 -8 29 62 80 130 96 489 327 508 327 3 0 13 -15 20 -32 20 -49 87 -117 144
-145 59 -31 167 -41 232 -24 23 6 91 45 150 85 386 262 698 347 996 272 270
-69 517 -271 685 -561 79 -137 162 -190 297 -190 61 0 91 5 127 22 151 69 229
250 174 403 -56 153 -296 456 -486 614 -173 145 -303 218 -545 311 -26 10 126
50 395 104 526 107 1104 150 1620 121z m-5742 -2330 c331 -35 635 -166 882
-380 l52 -46 -36 -249 c-20 -138 -68 -441 -106 -675 -134 -825 -169 -1159
-155 -1462 4 -82 4 -148 1 -148 -15 0 -147 86 -208 137 -87 71 -228 219 -300
314 -279 372 -494 920 -549 1398 -15 137 -7 486 15 604 48 253 143 453 241
502 35 17 41 18 163 5z m10981 -5 c106 -54 205 -278 248 -560 20 -136 23 -440
4 -575 -88 -644 -401 -1290 -792 -1637 -66 -59 -241 -183 -258 -183 -3 0 -6
120 -7 268 0 357 -24 566 -155 1367 -33 204 -78 487 -99 630 l-39 260 64 61
c164 156 447 296 705 349 165 34 289 41 329 20z"/>
<path d="M8244 13865 l-319 -324 -304 319 c-167 176 -306 320 -310 320 -3 0
-32 -49 -63 -108 -31 -59 -158 -298 -283 -532 -287 -540 -527 -1016 -523
-1038 2 -9 30 -35 63 -58 68 -47 465 -277 470 -272 2 2 92 300 200 663 108
363 200 666 204 673 5 9 101 -94 287 -304 153 -175 284 -319 289 -320 6 -2
123 136 260 306 138 170 253 306 257 302 3 -4 99 -304 213 -667 114 -363 210
-663 213 -666 8 -8 525 325 530 340 4 12 -850 1691 -859 1691 -4 0 -150 -146
-325 -325z"/>
<path d="M6124 7741 c-58 -14 -125 -53 -174 -101 -254 -247 -314 -802 -128
-1179 44 -89 145 -209 200 -237 l28 -15 -38 -57 c-117 -173 -196 -348 -247
-547 -52 -204 -64 -375 -38 -577 l5 -47 -58 15 c-194 50 -449 142 -599 216
-255 127 -461 297 -528 435 -12 24 -25 43 -29 43 -14 0 -86 -119 -109 -179
-67 -180 -100 -398 -102 -671 0 -208 13 -305 65 -446 65 -180 203 -335 371
-418 90 -44 190 -76 239 -76 23 0 26 -6 38 -72 34 -196 134 -409 252 -540 90
-99 229 -181 365 -215 90 -22 310 -22 409 0 89 20 193 59 261 97 l52 29 80
-92 c129 -151 265 -261 418 -339 149 -77 240 -99 403 -99 213 0 411 62 602
188 l67 44 38 -24 c252 -159 630 -239 858 -182 215 54 452 213 626 419 l62 74
66 -34 c138 -69 371 -113 531 -100 375 31 655 310 755 751 l22 100 59 7 c39 5
91 23 154 54 79 39 109 62 186 138 187 187 284 421 284 686 0 366 -82 732
-195 865 -25 30 -25 30 -40 10 -234 -305 -550 -499 -1054 -646 -74 -21 -135
-38 -137 -36 -1 1 2 38 8 82 14 109 4 317 -22 447 -40 206 -130 427 -247 608
l-56 85 29 20 c183 126 303 418 304 735 0 355 -145 667 -356 762 -74 33 -171
31 -249 -5 -141 -66 -259 -238 -315 -462 -19 -73 -43 -293 -35 -319 2 -6 6
-48 9 -94 l6 -82 -62 36 c-341 194 -730 300 -1144 311 -459 12 -837 -73 -1233
-278 -119 -61 -132 -66 -127 -46 14 58 18 220 7 316 -49 417 -287 701 -537
642z m2083 -1286 c209 -30 375 -80 558 -171 634 -312 909 -930 666 -1494 -113
-263 -360 -509 -661 -660 -510 -256 -1164 -254 -1677 5 -159 81 -265 157 -388
280 -163 163 -268 340 -322 542 -23 85 -26 118 -26 248 0 130 3 163 26 250 50
186 150 364 290 512 254 268 608 439 1017 492 109 14 406 12 517 -4z"/>
</g>
</svg>
